<svg xmlns="http://www.w3.org/2000/svg" viewBox="0 0 1500 1000" width="1500" height="1000" role="img"><defs><linearGradient id="g" x1="0" y1="0" x2="1" y2="1"><stop offset="0" stop-color="#04091A"/><stop offset="1" stop-color="#00205B"/></linearGradient><radialGradient id="v" cx="0.5" cy="0.45" r="0.78"><stop offset="0.55" stop-color="#000" stop-opacity="0"/><stop offset="1" stop-color="#000" stop-opacity="0.45"/></radialGradient><clipPath id="c"><rect width="1500" height="1000"/></clipPath></defs><rect width="1500" height="1000" fill="url(#g)"/><g clip-path="url(#c)"><g transform="rotate(-1.4 750 500)"><line x1="339" y1="1052" x2="2479" y2="357" stroke="#FFC72C" stroke-width="7.5" opacity="0.42"/><line x1="339" y1="1052" x2="2305" y2="-41" stroke="#E3213E" stroke-width="6.8" opacity="0.33"/><line x1="339" y1="1052" x2="2059" y2="-398" stroke="#E3213E" stroke-width="3.5" opacity="0.39"/><line x1="339" y1="1052" x2="1748" y2="-702" stroke="#FFC72C" stroke-width="7.8" opacity="0.32"/><line x1="339" y1="1052" x2="1384" y2="-940" stroke="#E3213E" stroke-width="17.3" opacity="0.59"/><line x1="339" y1="1052" x2="982" y2="-1104" stroke="#E3213E" stroke-width="11.4" opacity="0.46"/><line x1="339" y1="1052" x2="556" y2="-1187" stroke="#FFC72C" stroke-width="3.6" opacity="0.44"/><line x1="339" y1="1052" x2="122" y2="-1187" stroke="#E3213E" stroke-width="12.2" opacity="0.49"/><line x1="339" y1="1052" x2="-305" y2="-1104" stroke="#E3213E" stroke-width="4.7" opacity="0.63"/><line x1="339" y1="1052" x2="-707" y2="-940" stroke="#FFC72C" stroke-width="9.5" opacity="0.61"/><line x1="339" y1="1052" x2="-1070" y2="-702" stroke="#E3213E" stroke-width="9.9" opacity="0.59"/><line x1="339" y1="1052" x2="-1381" y2="-398" stroke="#E3213E" stroke-width="3.5" opacity="0.59"/><line x1="339" y1="1052" x2="-1628" y2="-41" stroke="#FFC72C" stroke-width="13.6" opacity="0.35"/><line x1="339" y1="1052" x2="-1801" y2="357" stroke="#E3213E" stroke-width="11.4" opacity="0.53"/></g></g><rect width="1500" height="1000" fill="url(#v)"/></svg>