<svg xmlns="http://www.w3.org/2000/svg" viewBox="0 0 1500 1000" width="1500" height="1000" role="img"><defs><linearGradient id="g" x1="0" y1="0" x2="1" y2="1"><stop offset="0" stop-color="#04091A"/><stop offset="1" stop-color="#00205B"/></linearGradient><radialGradient id="v" cx="0.5" cy="0.45" r="0.78"><stop offset="0.55" stop-color="#000" stop-opacity="0"/><stop offset="1" stop-color="#000" stop-opacity="0.45"/></radialGradient><clipPath id="c"><rect width="1500" height="1000"/></clipPath></defs><rect width="1500" height="1000" fill="url(#g)"/><g clip-path="url(#c)"><g transform="rotate(0.2 750 500)"><polyline points="-94,90 71,250 -94,410" fill="none" stroke="#E3213E" stroke-width="70" stroke-linecap="round" stroke-linejoin="round" opacity="0.95"/><polyline points="281,90 446,250 281,410" fill="none" stroke="#FFC72C" stroke-width="70" stroke-linecap="round" stroke-linejoin="round" opacity="0.72"/><polyline points="656,90 821,250 656,410" fill="none" stroke="#00205B" stroke-width="70" stroke-linecap="round" stroke-linejoin="round" opacity="0.34"/><polyline points="1031,90 1196,250 1031,410" fill="none" stroke="#E3213E" stroke-width="70" stroke-linecap="round" stroke-linejoin="round" opacity="0.95"/><polyline points="1406,90 1571,250 1406,410" fill="none" stroke="#FFC72C" stroke-width="70" stroke-linecap="round" stroke-linejoin="round" opacity="0.72"/><polyline points="94,590 259,750 94,910" fill="none" stroke="#FFC72C" stroke-width="70" stroke-linecap="round" stroke-linejoin="round" opacity="0.72"/><polyline points="469,590 634,750 469,910" fill="none" stroke="#00205B" stroke-width="70" stroke-linecap="round" stroke-linejoin="round" opacity="0.34"/><polyline points="844,590 1009,750 844,910" fill="none" stroke="#E3213E" stroke-width="70" stroke-linecap="round" stroke-linejoin="round" opacity="0.95"/><polyline points="1219,590 1384,750 1219,910" fill="none" stroke="#FFC72C" stroke-width="70" stroke-linecap="round" stroke-linejoin="round" opacity="0.72"/><polyline points="1594,590 1759,750 1594,910" fill="none" stroke="#00205B" stroke-width="70" stroke-linecap="round" stroke-linejoin="round" opacity="0.34"/></g></g><rect width="1500" height="1000" fill="url(#v)"/></svg>