<svg xmlns="http://www.w3.org/2000/svg" viewBox="0 0 1500 1000" width="1500" height="1000" role="img"><defs><linearGradient id="g" x1="0" y1="0" x2="1" y2="1"><stop offset="0" stop-color="#071633"/><stop offset="1" stop-color="#0E2450"/></linearGradient><radialGradient id="v" cx="0.5" cy="0.45" r="0.78"><stop offset="0.55" stop-color="#000" stop-opacity="0"/><stop offset="1" stop-color="#000" stop-opacity="0.45"/></radialGradient><clipPath id="c"><rect width="1500" height="1000"/></clipPath></defs><rect width="1500" height="1000" fill="url(#g)"/><g clip-path="url(#c)"><g transform="rotate(2.0 750 500)"><path d="M-450 0 L-281 0 L-483 1000 L-653 1000 Z" fill="#0E2450" opacity="0.56"/><path d="M-150 0 L66 0 L-137 1000 L-353 1000 Z" fill="#0E2450" opacity="0.48"/><path d="M150 0 L329 0 L126 1000 L-53 1000 Z" fill="#FFC72C" opacity="0.70"/><path d="M450 0 L652 0 L450 1000 L247 1000 Z" fill="#FFE199" opacity="0.53"/><path d="M750 0 L830 0 L628 1000 L547 1000 Z" fill="#FFE199" opacity="0.76"/><path d="M1050 0 L1125 0 L923 1000 L847 1000 Z" fill="#FFC72C" opacity="0.35"/><path d="M1350 0 L1467 0 L1264 1000 L1147 1000 Z" fill="#FFC72C" opacity="0.51"/><path d="M1650 0 L1835 0 L1632 1000 L1447 1000 Z" fill="#FFC72C" opacity="0.45"/></g></g><rect width="1500" height="1000" fill="url(#v)"/></svg>