<svg xmlns="http://www.w3.org/2000/svg" viewBox="0 0 1500 1000" width="1500" height="1000" role="img"><defs><linearGradient id="g" x1="0" y1="0" x2="1" y2="1"><stop offset="0" stop-color="#04091A"/><stop offset="1" stop-color="#00205B"/></linearGradient><radialGradient id="v" cx="0.5" cy="0.45" r="0.78"><stop offset="0.55" stop-color="#000" stop-opacity="0"/><stop offset="1" stop-color="#000" stop-opacity="0.45"/></radialGradient><clipPath id="c"><rect width="1500" height="1000"/></clipPath></defs><rect width="1500" height="1000" fill="url(#g)"/><g clip-path="url(#c)"><g transform="rotate(5.4 750 500)"><line x1="618" y1="1139" x2="2758" y2="444" stroke="#FFC72C" stroke-width="4.3" opacity="0.23"/><line x1="618" y1="1139" x2="2622" y2="118" stroke="#E3213E" stroke-width="7.9" opacity="0.49"/><line x1="618" y1="1139" x2="2438" y2="-183" stroke="#E3213E" stroke-width="7.2" opacity="0.40"/><line x1="618" y1="1139" x2="2209" y2="-452" stroke="#FFC72C" stroke-width="17.9" opacity="0.39"/><line x1="618" y1="1139" x2="1940" y2="-681" stroke="#E3213E" stroke-width="14.9" opacity="0.27"/><line x1="618" y1="1139" x2="1639" y2="-866" stroke="#E3213E" stroke-width="16.0" opacity="0.66"/><line x1="618" y1="1139" x2="1313" y2="-1001" stroke="#FFC72C" stroke-width="7.1" opacity="0.68"/><line x1="618" y1="1139" x2="970" y2="-1083" stroke="#E3213E" stroke-width="10.5" opacity="0.25"/><line x1="618" y1="1139" x2="618" y2="-1111" stroke="#E3213E" stroke-width="9.9" opacity="0.41"/><line x1="618" y1="1139" x2="266" y2="-1083" stroke="#FFC72C" stroke-width="6.4" opacity="0.38"/><line x1="618" y1="1139" x2="-78" y2="-1001" stroke="#E3213E" stroke-width="9.0" opacity="0.41"/><line x1="618" y1="1139" x2="-404" y2="-866" stroke="#E3213E" stroke-width="5.8" opacity="0.30"/><line x1="618" y1="1139" x2="-705" y2="-681" stroke="#FFC72C" stroke-width="7.8" opacity="0.24"/><line x1="618" y1="1139" x2="-973" y2="-452" stroke="#E3213E" stroke-width="8.6" opacity="0.64"/><line x1="618" y1="1139" x2="-1203" y2="-183" stroke="#E3213E" stroke-width="15.6" opacity="0.39"/><line x1="618" y1="1139" x2="-1387" y2="118" stroke="#FFC72C" stroke-width="10.8" opacity="0.62"/><line x1="618" y1="1139" x2="-1522" y2="444" stroke="#E3213E" stroke-width="4.3" opacity="0.23"/></g></g><rect width="1500" height="1000" fill="url(#v)"/></svg>